#N canvas 144 92 1102 532 10;
#X msg 61 196 erase;
#X msg 53 169 remove 2;
#X obj 30 301 c.breakpoints @size 200 100 @fontname Helvetica @fontweight
normal @fontslant roman @fontsize 11 @receive (null) @send (null) @presetname
(null) @absrange 0 1000 @ordrange 0 1 @outline Linear @bgcolor 0.75
0.75 0.75 1 @bdcolor 0.5 0.5 0.5 1 @ptcolor 0.5 0.5 0.5 1 @licolor
0 0 0 1 @textcolor 0 0 0 1 @points 0 0 0 0 0 0 1 0 183.673 0.518519
370 0.87 650 0.81 1000 0.0493827;
#X obj 350 391 c.number @size 53 14 @fontname Helvetica @fontweight
normal @fontslant roman @fontsize 11 @receive (null) @send (null) @presetname
(null) @min (null) @max (null) @minmax (null) (null) @decimal 6 @bgcolor
0.75 0.75 0.75 1 @bdcolor 0.5 0.5 0.5 1 @textcolor 0 0 0 1;
#X obj 350 120 c.number @size 53 14 @fontname Helvetica @fontweight
normal @fontslant roman @fontsize 11 @receive (null) @send (null) @presetname
(null) @min (null) @max (null) @minmax (null) (null) @decimal 6 @bgcolor
0.75 0.75 0.75 1 @bdcolor 0.5 0.5 0.5 1 @textcolor 0 0 0 1;
#X obj 377 149 c.bang @size 17 17 @fontname Helvetica @fontweight normal
@fontslant roman @fontsize 11 @receive (null) @send (null) @bgcolor
0.75 0.75 0.75 1 @bdcolor 0.5 0.5 0.5 1 @bacolor 0 0 0 1;
#X msg 30 119 add 733 0.1;
#X text 111 119 Add a breakpoint (x \, y);
#X text 112 169 remove a breakpoint (index);
#X msg 46 144 move 4 \$1 \$2;
#X text 131 142 Move a breakpoint (index x \, y);
#X text 102 196 Erase all;
#X text 26 406 Click and drag on a breakpoint to move it;
#X obj 350 253 c.breakpoints @size 200 100 @fontname Helvetica @fontweight
normal @fontslant roman @fontsize 11 @receive (null) @send (null) @presetname
(null) @absrange 0 1000 @ordrange 0 1 @outline Linear @bgcolor 0.75
0.75 0.75 1 @bdcolor 0.5 0.5 0.5 1 @ptcolor 0.5 0.5 0.5 1 @licolor
0 0 0 1 @textcolor 0 0 0 1 @points 0 0 204.082 0.481481 392.857 0.814815
556.122 0.493827 714.286 0.876543 714.286 0.506173 882.653 0.432099
1000 0 1000 0 1000 0;
#X text 371 95 Play;
#X text 41 95 Edit;
#X text 410 114 Output the interpolated ordinate;
#X obj 447 388 line;
#X obj 447 411 c.number @size 53 14 @fontname Helvetica @fontweight
normal @fontslant roman @fontsize 11 @receive (null) @send (null) @presetname
(null) @min (null) @max (null) @minmax (null) (null) @decimal 6 @bgcolor
0.75 0.75 0.75 1 @bdcolor 0.5 0.5 0.5 1 @textcolor 0 0 0 1;
#X msg 545 413 0 0 0.839506 229.592 0.39 255 0.19 375 0.67 450 0.2
490 0.47 530 0.85 555 0.71 675 0.34 740 0.59 910;
#X msg 411 217 getlist;
#X text 400 153 for a line or line~ object;
#X text 400 143 Output several formatted lists;
#X text 462 217 Output the function as one list;
#X obj 685 301 c.breakpoints @size 200 100 @fontname Helvetica @fontweight
normal @fontslant roman @fontsize 11 @receive (null) @send (null) @presetname
(null) @absrange 0 1000 @ordrange -1 2 @outline Linear @bgcolor 0.75
0.75 0.75 1 @bdcolor 0.5 0.5 0.5 1 @ptcolor 0.5 0.5 0.5 1 @licolor
0 0 0 1 @textcolor 0 0 0 1 @points 0 2 122.449 0.888889 316.327 0 785.714
-0.925926 989.796 -1;
#X msg 685 97 absrange 0 1000;
#X text 784 96 Change the abscissa range;
#X msg 705 118 absrange 0 2000;
#X msg 715 147 ordrange 0 1;
#X msg 735 168 ordrange -1 2;
#X text 794 147 Change the ordinate range;
#X text 706 73 Some Properties;
#X text 836 197 Change the abscissa range;
#X text 867 247 Change the ordinate range;
#X msg 765 218 scaleabs 0 2000;
#X msg 745 197 scaleabs 0 500;
#X msg 775 247 scaleord 0 1.5;
#X msg 795 268 scaleord -1 -0.2;
#X text 866 207 and retain the;
#X text 866 217 function shape;
#X text 901 257 and retain the;
#X text 901 267 function shape;
#X msg 396 173 next;
#X text 434 173 Output the next breakpoint;
#X msg 406 195 prev;
#X text 444 195 Output the previous breakpoint;
#X text 410 124 for an abscissa (here \, between 0 - 1000);
#X text 26 426 Click with shift to create a breakpoint;
#X msg 71 221 write;
#X text 112 221 Write function in a file;
#X msg 81 251 read;
#X text 122 251 Read function from a file;
#X obj 545 370 c.prepend set;
#X text 0 46 c.breakpoints allows to create a breakpoint function and
to use it for line.;
#X text 26 446 Click with ctrl to remove a breakpoint;
#X obj 3 21 c.patcherinfos;
#X obj 4 12 c.loadmess;
#X obj -2 0 c.help.header;
#N canvas 390 84 722 277 what 0;
#X msg 595 99 attrprint;
#X text 29 -5 - Look at the properties window to edit the attributes.
Use the attrprint message to post the attributes characteristics.;
#X text 29 96 - The inlets and outlets are hidden with the "run mode".
;
#X text 29 198 - Some objects are very similar to the vanilla ones
but they're compatible with the preset and will be a part of a global
system to write time events.;
#X text 29 122 - Drag the border (bottom or right) or the corner (bottom-right)
of the box to resize the objects. Sometimes the width or the height
depends of the font size.;
#X text 29 168 -The popup menu (for attributes and help) is only available
with the "edit mode";
#X text 29 35 "Name" is the message that the object is expecting to
edit the attribute \, "Type" is the type of the values (float \, symbol
\, etc...) and "Size" is the number of values the object is expecting.
;
#X obj 516 73 c.number @size 53 14 @fontname Helvetica @fontweight
normal @fontslant roman @fontsize 11 @receive (null) @send (null) @presetname
(null) @min 64 @max (null) @minmax 64 (null) @decimal 6 @bgcolor 0.75
0.75 0.75 1 @bdcolor 0.5 0.5 0.5 1 @textcolor 0 0 0 1;
#X obj 516 142 c.radio @size 64 8 @fontname Helvetica @fontweight normal
@fontslant roman @fontsize 11 @receive (null) @send (null) @presetname
(null) @nitems 8 @mode 0 @bgcolor 0.75 0.75 0.75 1 @bdcolor 0.5 0.5
0.5 1 @itcolor 0.5 0.5 0.5 1;
#X msg 516 102 size \$1 8;
#X text 513 45 Example;
#X obj 446 73 c.number @size 53 14 @fontname Helvetica @fontweight
normal @fontslant roman @fontsize 11 @receive (null) @send (null) @presetname
(null) @min 1 @max (null) @minmax 1 (null) @decimal 6 @bgcolor 0.75
0.75 0.75 1 @bdcolor 0.5 0.5 0.5 1 @textcolor 0 0 0 1;
#X msg 446 102 nitems \$1;
#X connect 0 0 8 0;
#X connect 7 0 9 0;
#X connect 9 0 8 0;
#X connect 11 0 12 0;
#X connect 12 0 8 0;
#X restore 476 27 pd what you can do with GUI;
#X obj 302 463 c.help.pub;
#X connect 0 0 2 0;
#X connect 1 0 2 0;
#X connect 4 0 13 0;
#X connect 5 0 13 0;
#X connect 6 0 2 0;
#X connect 9 0 2 0;
#X connect 13 0 3 0;
#X connect 13 1 17 0;
#X connect 13 2 52 0;
#X connect 17 0 18 0;
#X connect 20 0 13 0;
#X connect 25 0 24 0;
#X connect 27 0 24 0;
#X connect 28 0 24 0;
#X connect 29 0 24 0;
#X connect 34 0 24 0;
#X connect 35 0 24 0;
#X connect 36 0 24 0;
#X connect 37 0 24 0;
#X connect 42 0 13 0;
#X connect 44 0 13 0;
#X connect 48 0 2 0;
#X connect 50 0 2 0;
#X connect 52 0 19 0;
#X connect 55 0 57 0;
#X connect 56 0 55 0;
