#N canvas 373 214 636 463 10;
#X obj 388 95 c.number @size 53 17 @fontname "Helvetica" @fontweight
"normal" @fontslant "roman" @fontsize 11 @receive "(null)" @send "(null)"
@presetname "(null)" @min 0 @max 8 @minmax 0 8 @decimal 6 @bgcolor
0.75 0.75 0.75 1 @bdcolor 0.5 0.5 0.5 1 @textcolor 0 0 0 1;
#X obj 328 175 c.gain~ @size 160 20 @fontname "Helvetica" @fontweight
"normal" @fontslant "roman" @fontsize 11 @receive "(null)" @send "(null)"
@presetname "(null)" @mode 1 @ramp 20 @bgcolor 0.75 0.75 0.75 1 @bdcolor
0.5 0.5 0.5 1 @kncolor 0.5 0.5 0.5 1;
#X obj 93 166 c.gain~ @size 20 160 @fontname "Helvetica" @fontweight
"normal" @fontslant "roman" @fontsize 11 @receive "(null)" @send "(null)"
@presetname "(null)" @mode 0 @ramp 20 @bgcolor 0.75 0.75 0.75 1 @bdcolor
0.5 0.5 0.5 1 @kncolor 0.5 0.5 0.5 1;
#X obj 108 339 c.number @size 53 17 @fontname "Helvetica" @fontweight
"normal" @fontslant "roman" @fontsize 11 @receive "(null)" @send "(null)"
@presetname "(null)" @min "(null)" @max "(null)" @minmax "(null)" "(null)"
@decimal 6 @bgcolor 0.75 0.75 0.75 1 @bdcolor 0.5 0.5 0.5 1 @textcolor
0 0 0 1;
#X obj 93 113 c.number @size 53 17 @fontname "Helvetica" @fontweight
"normal" @fontslant "roman" @fontsize 11 @receive "(null)" @send "(null)"
@presetname "(null)" @min -90 @max 18 @minmax -90 18 @decimal 6 @bgcolor
0.75 0.75 0.75 1 @bdcolor 0.5 0.5 0.5 1 @textcolor 0 0 0 1;
#X msg 388 121 linear \$1;
#X obj 308 231 c.number~ @size 53 17 @fontname "Helvetica" @fontweight
"normal" @fontslant "roman" @fontsize 11 @receive "(null)" @send "(null)"
@interval 50 @decimal 6 @bgcolor 0.75 0.75 0.75 1 @bdcolor 0.5 0.5
0.5 1 @textcolor 0 0 0 1;
#X obj 93 369 c.meter~ @size 85 13 @fontname "Helvetica" @fontweight
"normal" @fontslant "roman" @fontsize 11 @receive "(null)" @send "(null)"
@interval 50 @bgcolor 0.75 0.75 0.75 1 @bdcolor 0.5 0.5 0.5 1 @coldcolor
0 0.6 0 0.8 @tepidcolor 0.6 0.73 0 0.8 @warmcolor 0.85 0.85 0 0.8 @hotcolor
1 0.6 0 0.8 @overcolor 1 0 0 0.8;
#X obj 93 82 noise~;
#X text 168 338 dB;
#X text 154 113 dB;
#X text 115 154 - 18 dB;
#X text 115 315 - -90 dB;
#X text 115 182 - 0 dB;
#X obj 14 101 c.number @size 53 17 @fontname "Helvetica" @fontweight
"normal" @fontslant "roman" @fontsize 11 @receive "(null)" @send "(null)"
@presetname "(null)" @min -90 @max 18 @minmax -90 18 @decimal 6 @bgcolor
0.75 0.75 0.75 1 @bdcolor 0.5 0.5 0.5 1 @textcolor 0 0 0 1;
#X msg 14 130 set \$1;
#X text 448 93 Amplitude;
#X obj 503 231 c.number @size 53 17 @fontname "Helvetica" @fontweight
"normal" @fontslant "roman" @fontsize 11 @receive "(null)" @send "(null)"
@presetname "(null)" @min "(null)" @max "(null)" @minmax "(null)" "(null)"
@decimal 6 @bgcolor 0.75 0.75 0.75 1 @bdcolor 0.5 0.5 0.5 1 @textcolor
0 0 0 1;
#X text 561 230 dB;
#X obj 308 118 sig~ 1;
#X text 121 241 Absolute mousing mode;
#X text 344 258 Relative mousing mode;
#X text 194 178 reset to 0 dB.;
#X text 194 164 Double click to;
#X text 327 207 0 amp;
#X text 326 196 |;
#X text 455 196 |;
#X text 456 207 1 amp;
#X obj 388 71 c.loadmess 1;
#X text 5 47 c.gain~ is a slider that allows to control the volume
of a signal with decibel.;
#X obj 11 26 c.patcherinfos;
#X obj 12 17 c.loadmess;
#X obj 6 5 c.help.header;
#X obj 120 396 c.help.pub;
#X obj 496 415 c.help.gui;
#X text 493 399 Look at me;
#X obj 306 326 c.dsp~ @size 30 30 @fontname "Helvetica" @fontweight
"normal" @fontslant "roman" @fontsize 11 @receive "(null)" @send "(null)"
@bgcolor 0.75 0.75 0.75 1 @bdcolor 0.5 0.5 0.5 1 @logocolor 0 0.6 0
0.8;
#X connect 0 0 5 0;
#X connect 1 0 6 0;
#X connect 1 1 17 0;
#X connect 2 0 7 0;
#X connect 2 1 3 0;
#X connect 4 0 2 0;
#X connect 5 0 1 0;
#X connect 8 0 2 0;
#X connect 14 0 15 0;
#X connect 15 0 2 0;
#X connect 19 0 1 0;
#X connect 28 0 0 0;
#X connect 30 0 32 0;
#X connect 31 0 30 0;
