#N canvas 369 171 646 373 10;
#X obj 178 262 dac~, f 13;
#X msg 517 211 \; pd dsp 1;
#X msg 517 252 \; pd dsp 0;
#X obj 28 131 c.matrix @size 105 53 @fontname Helvetica @fontweight
normal @fontslant roman @fontsize 11 @receive (null) @send (null) @presetname
matrixctrl @matrix 4 2 @bgcolor 0.75 0.75 0.75 1 @bdcolor 0.5 0.5 0.5
1 @accolor 0.5 0.5 0.5 1;
#X obj 178 234 c.matrix~ 4 2;
#X obj 178 100 osc~ 220;
#X obj 203 130 osc~ 554.37;
#X obj 228 160 osc~ 587.33;
#X obj 253 190 osc~ 783.99;
#X obj 414 121 c.preset @size 15 16 @fontname Helvetica @fontweight
normal @fontslant roman @fontsize 10 @receive (null) @send (null) @bgcolor
0.75 0.75 0.75 1 @bdcolor 0.5 0.5 0.5 1 @textcolor 0 0 0 1 @emcolor
0.85 0.85 0.85 1 @stcolor 0.5 0.5 0.5 1 @secolor 0.15 0.15 0.15 1 @preset
[ @index 0 @matrixctrl c.matrix list 0 0 1 1 0 0 2 0 1 3 0 0 0 1 0
1 1 1 2 1 0 3 1 1 ];
#X obj 414 88 c.loadmess 1;
#X text 13 49 c.freeverb~ use the c.matrix output to route the signal.
;
#X text 274 221 arg 1 : the number of inputs;
#X text 274 241 arg 2 : the number of outputs;
#X obj 17 30 c.patcherinfos;
#X obj 18 21 c.loadmess;
#X obj 12 7 c.help.header;
#X obj 126 299 c.help.pub;
#X connect 3 0 4 0;
#X connect 4 0 0 0;
#X connect 4 1 0 1;
#X connect 5 0 4 0;
#X connect 6 0 4 1;
#X connect 7 0 4 2;
#X connect 8 0 4 3;
#X connect 10 0 9 0;
#X connect 14 0 16 0;
#X connect 15 0 14 0;
