#N canvas 141 97 688 660 10;
#X obj 108 183 c.bang @size 17 17 @fontname "Helvetica" @fontweight
"normal" @fontslant "roman" @fontsize 11 @receive "(null)" @send "(null)"
@bgcolor 0.75 0.75 0.75 1 @bdcolor 0.5 0.5 0.5 1 @bacolor 0 0 0 1;
#X obj 10 29 c.patcherinfos;
#X obj 11 20 c.loadmess;
#X obj 5 8 c.help.header;
#X obj 110 570 c.help.pub;
#X text 7 54 c.matrix allows to create a breakpoint function and to
use it for line.;
#X obj 281 375 c.matrix @size 161 81 @fontname "Helvetica" @fontweight
"normal" @fontslant "roman" @fontsize 11 @receive "(null)" @send "(null)"
@presetname "(null)" @matrix 8 4 @bgcolor 0.75 0.75 0.75 1 @bdcolor
0.5 0.5 0.5 1 @accolor 0.5 0.5 0.5 1;
#X msg 524 306 matrix 8 4;
#X msg 480 274 matrix 4 2;
#X msg 437 515 1 0 0 0 0 0 0 0;
#X obj 429 151 c.number @size 53 17 @fontname "Helvetica" @fontweight
"normal" @fontslant "roman" @fontsize 11 @receive "(null)" @send "(null)"
@presetname "(null)" @min 0 @max 3 @minmax 0 3 @decimal 0 @bgcolor
0.75 0.75 0.75 1 @bdcolor 0.5 0.5 0.5 1 @textcolor 0 0 0 1;
#X msg 429 187 getrow \$1;
#X obj 508 151 c.number @size 53 17 @fontname "Helvetica" @fontweight
"normal" @fontslant "roman" @fontsize 11 @receive "(null)" @send "(null)"
@presetname "(null)" @min 0 @max 8 @minmax 0 8 @decimal 0 @bgcolor
0.75 0.75 0.75 1 @bdcolor 0.5 0.5 0.5 1 @textcolor 0 0 0 1;
#X msg 508 187 getcolumn \$1;
#X text 435 543 Row or column values;
#X text 427 113 Output the row or column values;
#X text 427 123 via the right outlet.;
#X msg 172 133 0 1 1;
#X msg 214 133 0 1 0;
#X text 142 103 Set and output the value;
#X text 142 113 of a cell (column \, row \, value).;
#X text 253 163 Set and output the value;
#X text 253 173 of a several cells (column \,;
#X text 253 183 row \, value \, column \, row \,;
#X text 253 193 value \, column \, row \, etc.).;
#X msg 39 241 clear;
#X msg 281 515 4 3 1;
#X text 279 543 Cell value;
#X msg 257 212 1 1 1 \, 2 0 1 \, 4 3 1;
#X text 37 223 Clear the matrix.;
#X text 82 164 Output all cells.;
#X msg 29 315 set 0 1 1;
#X msg 28 344 set 0 1 0;
#X msg 29 371 set 1 1 1 \, 2 0 1 \, 4 3 1;
#X text 29 285 Set without;
#X text 29 295 output the values.;
#X text 477 252 Resize the matrix (column \, row);
#X obj 281 463 list prepend set;
#X obj 281 485 list trim;
#X obj 437 463 list prepend set;
#X obj 437 485 list trim;
#X obj 483 592 c.help.gui;
#X text 480 576 Look at me;
#X connect 0 0 6 0;
#X connect 1 0 3 0;
#X connect 2 0 1 0;
#X connect 6 0 37 0;
#X connect 6 1 39 0;
#X connect 7 0 6 0;
#X connect 8 0 6 0;
#X connect 10 0 11 0;
#X connect 11 0 6 0;
#X connect 12 0 13 0;
#X connect 13 0 6 0;
#X connect 17 0 6 0;
#X connect 18 0 6 0;
#X connect 25 0 6 0;
#X connect 28 0 6 0;
#X connect 31 0 6 0;
#X connect 32 0 6 0;
#X connect 33 0 6 0;
#X connect 37 0 38 0;
#X connect 38 0 26 0;
#X connect 39 0 40 0;
#X connect 40 0 9 0;
