#N canvas 84 278 592 423 10;
#X obj 5 6 cnv 10 552 40 empty empty c.mousestate 3 12 0 18 -228856
-33289 0;
#X text 17 388 Coffee by Pierre Guillot | CICM - Université Paris 8
;
#X text 8 28 An informer about the mouse state.;
#X obj 194 236 c.number @size 53 14 @fontname Helvetica @fontweight
normal @fontslant roman @fontsize 11 @receive (null) @send (null) @presetname
(null) @min (null) @max (null) @minmax (null) (null) @decimal 6 @bgcolor
0.75 0.75 0.75 1 @bdcolor 0.5 0.5 0.5 1 @textcolor 0 0 0 1;
#X obj 219 266 c.number @size 53 14 @fontname Helvetica @fontweight
normal @fontslant roman @fontsize 11 @receive (null) @send (null) @presetname
(null) @min (null) @max (null) @minmax (null) (null) @decimal 6 @bgcolor
0.75 0.75 0.75 1 @bdcolor 0.5 0.5 0.5 1 @textcolor 0 0 0 1;
#X obj 243 296 c.number @size 53 14 @fontname Helvetica @fontweight
normal @fontslant roman @fontsize 11 @receive (null) @send (null) @presetname
(null) @min (null) @max (null) @minmax (null) (null) @decimal 6 @bgcolor
0.75 0.75 0.75 1 @bdcolor 0.5 0.5 0.5 1 @textcolor 0 0 0 1;
#X obj 268 326 c.number @size 53 14 @fontname Helvetica @fontweight
normal @fontslant roman @fontsize 11 @receive (null) @send (null) @presetname
(null) @min (null) @max (null) @minmax (null) (null) @decimal 6 @bgcolor
0.75 0.75 0.75 1 @bdcolor 0.5 0.5 0.5 1 @textcolor 0 0 0 1;
#X obj 170 291 c.toggle @size 15 15 @fontname Helvetica @fontweight
normal @fontslant roman @fontsize 11 @receive (null) @send (null) @presetname
(null) @bgcolor 0.75 0.75 0.75 1 @bdcolor 0.5 0.5 0.5 1 @crcolor 0.5
0.5 0.5 1;
#X msg 72 154 poll;
#X msg 112 154 nopoll;
#X msg 170 154 mode 0;
#X msg 230 154 mode 1;
#X msg 330 154 zero;
#X msg 390 154 reset;
#X obj 170 198 c.mousestate --------;
#X obj 293 236 c.number @size 53 14 @fontname Helvetica @fontweight
normal @fontslant roman @fontsize 11 @receive (null) @send (null) @presetname
(null) @min (null) @max (null) @minmax (null) (null) @decimal 6 @bgcolor
0.75 0.75 0.75 1 @bdcolor 0.5 0.5 0.5 1 @textcolor 0 0 0 1;
#X text 6 49 c.mousestate retrieves the mouse state informations.;
#X text 70 120 the mouse state;
#X text 70 110 Poll/nopoll;
#X text 170 110 Window origin : 0 or;
#X text 170 120 canvas ordigin.;
#X text 330 120 and reset restaures the default ones.;
#X text 330 110 Zero sets the origin to the current position;
#X text 192 260 x;
#X text 155 307 Mouse;
#X text 155 317 Pressed;
#X text 215 320 delta x;
#X text 240 350 delta y;
#X text 217 290 y;
#X text 288 261 modifiers :;
#X text 395 244 none : 0;
#X text 395 254 shift : 1;
#X text 395 264 maj : 2;
#X text 395 274 ctrl : 4;
#X text 395 284 cmd : 8;
#X text 395 294 alt : 16;
#X connect 8 0 14 0;
#X connect 9 0 14 0;
#X connect 10 0 14 0;
#X connect 11 0 14 0;
#X connect 12 0 14 0;
#X connect 13 0 14 0;
#X connect 14 0 7 0;
#X connect 14 1 3 0;
#X connect 14 2 4 0;
#X connect 14 3 5 0;
#X connect 14 4 6 0;
#X connect 14 5 15 0;
