#N canvas 99 59 439 725 10;
#X obj 14 39 c.patcherinfos;
#X obj 14 22 loadbang;
#X obj 15 163 c.tab @size 398 36 @fontname "Monaco" @fontweight "normal"
@fontslant "roman" @fontsize 13 @receive "(null)" @send "(null)" @presetname
"(null)" @orientation 0 @toggle 1 @items "Chocolate" "Caramel" "Coffee"
@bgcolor 0.75 0.75 0.75 1 @bdcolor 0.5 0.5 0.5 1 @textcolor 0 0 0 1
@hocolor 0.5 0.5 0.5 1 @secolor 0.35 0.35 0.35 1;
#X obj 28 640 c.help.pub;
#X obj 15 202 c.tab @size 398 371 @fontname "Monaco" @fontweight "normal"
@fontslant "roman" @fontsize 11 @receive "(null)" @send "(null)" @presetname
"(null)" @orientation 1 @toggle 0 @items "c.loadmess" "c.pak" "c.patcherargs"
"c.patcherinfos" @bgcolor 0.75 0.75 0.75 1 @bdcolor 0.5 0.5 0.5 1 @textcolor
0 0 0 1 @hocolor 0.5 0.5 0.5 1 @secolor 0.35 0.35 0.35 1;
#X obj 45 167 c.loadmess 0;
#X text 35 65 The Cream library is a set of objects made with the CICM
Wrapper developed to facilitate the creation of signal objects and
GUI and to improve user interactions. The GUI part of the library is
Chocolate \, the DSP part of the library is Caramel and the Patching/Data
part of the library is Coffee.;
#N canvas 143 246 741 435 sel.c.txt 0;
#X obj -556 -337 unpack s s;
#X msg -412 -521 clear;
#X obj -592 -600 inlet;
#X obj -499 -299 outlet;
#X obj -412 -485 outlet;
#X obj -556 -363 textfile;
#X obj -590 -530 until;
#X msg -573 -498 rewind;
#X obj -590 -572 t b b s b;
#X obj -556 -466 makefilename c.%s.txt;
#X obj -160 -293 list split 1;
#X obj -126 -273 list split 1;
#X obj -300 -573 inlet;
#X obj -92 -200 outlet;
#X obj -300 -551 route -1;
#X obj -160 -351 textfile;
#X obj -267 -433 until;
#X msg -190 -456 rewind;
#X obj -256 -494 t f f b;
#X obj -160 -318 spigot 0;
#X obj -256 -349 f 0;
#X obj -225 -348 + 1;
#X obj -256 -325 ==;
#X msg -218 -408 0;
#X obj -267 -387 t b b;
#X obj -139 -416 c.loadmess;
#X msg -158 -394 read c.parts.txt;
#X obj -264 -459 + 1;
#X obj -254 -517 + 2;
#X obj -556 -443 list prepend read;
#X obj -556 -421 list trim;
#X obj -92 -250 list prepend 10 10;
#X obj -92 -228 list trim;
#X connect 0 1 3 0;
#X connect 1 0 4 0;
#X connect 2 0 8 0;
#X connect 5 0 0 0;
#X connect 5 1 6 1;
#X connect 6 0 5 0;
#X connect 7 0 5 0;
#X connect 8 0 6 0;
#X connect 8 1 7 0;
#X connect 8 2 1 0;
#X connect 8 2 9 0;
#X connect 9 0 29 0;
#X connect 10 1 11 0;
#X connect 11 1 31 0;
#X connect 12 0 14 0;
#X connect 14 1 28 0;
#X connect 15 0 19 0;
#X connect 16 0 24 0;
#X connect 17 0 15 0;
#X connect 18 0 27 0;
#X connect 18 1 22 1;
#X connect 18 1 23 0;
#X connect 18 2 17 0;
#X connect 19 0 10 0;
#X connect 20 0 21 0;
#X connect 20 0 22 0;
#X connect 21 0 20 1;
#X connect 22 0 19 1;
#X connect 23 0 20 1;
#X connect 24 0 15 0;
#X connect 24 1 20 0;
#X connect 25 0 26 0;
#X connect 26 0 15 0;
#X connect 27 0 16 0;
#X connect 28 0 18 0;
#X connect 29 0 30 0;
#X connect 30 0 5 0;
#X connect 31 0 32 0;
#X connect 32 0 13 0;
#X restore 29 196 pd sel.c.txt;
#X obj 15 576 c.blackboard @size 398 39 @fontname "Monaco" @fontweight
"normal" @fontslant "roman" @fontsize 11 @receive "(null)" @send "(null)"
@chalkmode 0 @bgcolor 0.75 0.75 0.75 1 @bdcolor 0.5 0.5 0.5 1;
#X msg 352 168 clear;
#X obj 250 196 t list b;
#N canvas 129 211 735 457 sel.c.text2 0;
#X obj 329 310 list split 1;
#X obj 363 330 list split 1;
#X obj 188 60 inlet;
#X obj 397 403 outlet;
#X obj 188 82 route -1;
#X obj 531 282 outlet;
#X obj 327 65 inlet;
#X obj 329 252 textfile;
#X obj 329 93 t s b;
#X obj 233 159 until;
#X msg 299 147 rewind;
#X obj 233 109 t f f b;
#X obj 329 285 spigot 0;
#X obj 233 227 f 0;
#X obj 272 228 + 1;
#X obj 233 251 ==;
#X msg 271 195 0;
#X obj 233 135 + 1;
#X obj 222 204 t b b;
#X obj 329 169 makefilename c.%s.txt;
#X obj 397 353 list prepend 10 10;
#X obj 397 375 list trim;
#X obj 329 192 list prepend read;
#X obj 329 214 list trim;
#X connect 0 1 1 0;
#X connect 1 1 20 0;
#X connect 2 0 4 0;
#X connect 4 1 11 0;
#X connect 6 0 8 0;
#X connect 7 0 12 0;
#X connect 8 0 19 0;
#X connect 8 1 5 0;
#X connect 9 0 18 0;
#X connect 10 0 7 0;
#X connect 11 0 17 0;
#X connect 11 1 15 1;
#X connect 11 1 16 0;
#X connect 11 2 10 0;
#X connect 11 2 5 0;
#X connect 12 0 0 0;
#X connect 13 0 14 0;
#X connect 13 0 15 0;
#X connect 14 0 13 1;
#X connect 15 0 12 1;
#X connect 16 0 13 1;
#X connect 17 0 9 0;
#X connect 18 0 7 0;
#X connect 18 1 13 0;
#X connect 19 0 22 0;
#X connect 20 0 21 0;
#X connect 21 0 3 0;
#X connect 22 0 23 0;
#X connect 23 0 7 0;
#X restore 274 351 pd sel.c.text2;
#X msg 249 392 clear;
#X obj 14 22 c.help.header;
#N canvas 698 181 450 300 c.open.hel 0;
#X obj -259 -281 makefilename %s-help.pd;
#X obj -259 -248 pack s s;
#X obj -232 -321 c.patcherinfos;
#X obj -259 -342 t s b;
#X msg -259 -221 \; pd open \$1 \$2;
#X obj -192 -301 makefilename %s/helps;
#X obj -287 -407 inlet;
#X obj -287 -376 sel Tutorial_1;
#X obj -49 -248 pack s s;
#X obj -22 -321 c.patcherinfos;
#X msg -49 -221 \; pd open \$1 \$2;
#X msg -49 -272 Tutorial_1.pd;
#X obj -49 -342 t b b;
#X obj 18 -301 makefilename %s/tutorials;
#X connect 0 0 1 0;
#X connect 1 0 4 0;
#X connect 2 1 5 0;
#X connect 3 0 0 0;
#X connect 3 1 2 0;
#X connect 5 0 1 1;
#X connect 6 0 7 0;
#X connect 7 0 12 0;
#X connect 7 1 3 0;
#X connect 8 0 10 0;
#X connect 9 1 13 0;
#X connect 11 0 8 0;
#X connect 12 0 11 0;
#X connect 12 1 9 0;
#X connect 13 0 8 1;
#X restore 294 542 pd c.open.hel;
#X obj 235 451 list prepend text;
#X obj 235 473 list trim;
#X obj 50 234 list prepend append;
#X obj 50 256 list trim;
#X obj 206 255 list prepend text;
#X obj 180 286 list trim;
#X connect 0 0 13 0;
#X connect 1 0 0 0;
#X connect 2 1 7 0;
#X connect 2 1 11 1;
#X connect 2 2 7 1;
#X connect 4 1 14 0;
#X connect 4 2 11 0;
#X connect 5 0 2 0;
#X connect 7 0 17 0;
#X connect 7 1 4 0;
#X connect 7 2 10 0;
#X connect 9 0 8 0;
#X connect 10 0 19 0;
#X connect 10 1 9 0;
#X connect 11 0 15 0;
#X connect 11 1 12 0;
#X connect 12 0 8 0;
#X connect 15 0 16 0;
#X connect 16 0 8 0;
#X connect 17 0 18 0;
#X connect 18 0 4 0;
#X connect 19 0 20 0;
#X connect 20 0 4 0;
#X coords 0 -2.14748e+09 1 -2.14748e+09 100 60 0;
