#N canvas 534 197 742 532 10;
#X obj 45 1 cnv 15 354 40 empty \$0-c.header empty 3 12 0 18 -212212
-1 0;
#X obj 455 5 inlet;
#X obj 296 78 namecanvas \$0-r;
#X obj 490 406 s \$0-r;
#X msg 456 425 label \$1;
#X obj 422 308 list split 1;
#X obj 456 328 list split 1;
#X obj 3 3 c.blackboard @size 40 37 @fontname "Helvetica" @fontweight
"normal" @fontslant "roman" @fontsize 11 @receive "(null)" @send "(null)"
@chalkmode 0 @bgcolor 0.802322 0.802322 0.802322 1 @bdcolor 0.802322
0.802322 0.802322 1;
#X obj 502 118 textfile;
#X obj 470 88 until;
#X obj 485 251 f 1;
#X obj 518 250 f 0;
#X obj 422 273 spigot 0;
#X obj 485 197 sel sa;
#X msg 523 88 rewind;
#X obj 422 147 list;
#X obj 518 225 bang;
#X obj 422 171 t list symbol;
#X obj 455 35 t b b b b s;
#X obj 456 455 s \$0-c.header;
#X text 0 23 comment;
#X msg 4 72 clear \, image 3 1 choco.gif;
#X obj 490 358 list prepend text 46 23;
#X obj 490 380 list trim;
#X msg 502 58 read c.objects.txt;
#X connect 1 0 18 0;
#X connect 4 0 19 0;
#X connect 5 1 6 0;
#X connect 5 1 4 0;
#X connect 6 1 22 0;
#X connect 8 0 15 0;
#X connect 8 1 9 1;
#X connect 9 0 8 0;
#X connect 10 0 12 1;
#X connect 11 0 12 1;
#X connect 12 0 5 0;
#X connect 13 0 10 0;
#X connect 13 0 9 1;
#X connect 13 1 16 0;
#X connect 14 0 8 0;
#X connect 15 0 17 0;
#X connect 16 0 11 0;
#X connect 17 0 12 0;
#X connect 17 1 13 0;
#X connect 18 0 21 0;
#X connect 18 1 9 0;
#X connect 18 2 14 0;
#X connect 18 3 24 0;
#X connect 18 4 13 1;
#X connect 21 0 7 0;
#X connect 22 0 23 0;
#X connect 23 0 3 0;
#X connect 24 0 8 0;
#X coords 0 -1 1 1 400 42 2 0 0;
