#N canvas 540 102 940 620 10;
#N canvas 0 22 496 444 oscill~ 0;
#X obj 273 284 vline~;
#X obj 279 75 noise~;
#X obj 159 45 osc~;
#X obj 159 192 *~;
#X obj 199 192 *~;
#X obj 239 192 *~;
#X obj 279 192 *~;
#X obj 239 45 phasor~;
#X obj 174 160 == 0;
#X obj 214 160 == 1;
#X obj 254 160 == 2;
#X obj 294 160 == 3;
#N canvas 0 22 450 300 tri 0;
#X obj 203 59 *~ -1;
#X obj 203 91 +~ 1;
#X obj 182 133 min~;
#X obj 182 168 -~ 0.25;
#X obj 182 191 *~ 4;
#X obj 182 20 inlet~;
#X obj 182 241 outlet~;
#X connect 0 0 1 0;
#X connect 1 0 2 1;
#X connect 2 0 3 0;
#X connect 3 0 4 0;
#X connect 4 0 6 0;
#X connect 5 0 2 0;
#X connect 5 0 0 0;
#X restore 199 79 pd tri;
#X obj 159 308 *~;
#X obj 316 211 metro 200;
#X msg 273 259 0 0 \, 1 5 \, 0 5 20;
#X obj 159 9 inlet;
#X obj 159 361 outlet~;
#X obj 329 97 inlet;
#X obj 369 147 inlet;
#X obj 409 147 inlet;
#X obj 420 224 inlet;
#X obj 419 275 switch~;
#X obj 334 179 == 0;
#X connect 0 0 13 1;
#X connect 1 0 6 0;
#X connect 2 0 3 0;
#X connect 3 0 13 0;
#X connect 4 0 13 0;
#X connect 5 0 13 0;
#X connect 6 0 13 0;
#X connect 7 0 5 0;
#X connect 7 0 12 0;
#X connect 8 0 3 1;
#X connect 9 0 4 1;
#X connect 10 0 5 1;
#X connect 11 0 6 1;
#X connect 12 0 4 0;
#X connect 13 0 17 0;
#X connect 14 0 15 0;
#X connect 15 0 0 0;
#X connect 16 0 2 0;
#X connect 16 0 7 0;
#X connect 18 0 8 0;
#X connect 18 0 9 0;
#X connect 18 0 10 0;
#X connect 18 0 11 0;
#X connect 19 0 23 0;
#X connect 19 0 14 0;
#X connect 20 0 14 1;
#X connect 21 0 22 0;
#X connect 23 0 0 0;
#X restore 185 419 pd oscill~;
#X msg 492 240 \; pd dsp 1;
#X msg 489 345 \; pd dsp 0;
#N canvas 0 22 450 300 reader~ 0;
#X msg 40 136 open /Users/Pierre/Desktop/acoustic.wav;
#X obj 40 216 readsf~;
#X obj 40 84 openpanel;
#X obj 79 243 spigot 0;
#X obj 182 104 sel 1;
#X obj 182 163 t 1 b;
#X obj 40 108 c.prepend set open;
#X msg 118 190 1;
#X obj 40 34 inlet;
#X obj 182 34 inlet;
#X obj 272 34 inlet;
#X obj 376 167 inlet;
#X obj 375 218 switch~;
#X obj 40 266 outlet~;
#X connect 0 0 1 0;
#X connect 1 0 13 0;
#X connect 1 1 3 0;
#X connect 2 0 6 0;
#X connect 3 0 5 0;
#X connect 4 0 5 0;
#X connect 4 1 1 0;
#X connect 5 0 7 0;
#X connect 5 1 0 0;
#X connect 6 0 0 0;
#X connect 7 0 1 0;
#X connect 8 0 2 0;
#X connect 9 0 4 0;
#X connect 10 0 3 1;
#X connect 11 0 12 0;
#X restore 492 148 pd reader~;
#X obj 482 90 c.bang @size 17 17 @fontname Helvetica @fontweight normal
@fontslant roman @fontsize 11 @receive (null) @send (null) @bgcolor
0.75 0.75 0.75 1 @bdcolor 0.5 0.5 0.5 1 @bacolor 0 0 0 1;
#X obj 515 60 c.toggle @size 15 15 @fontname Helvetica @fontweight
normal @fontslant roman @fontsize 11 @receive (null) @send (null) @presetname
(null) @bgcolor 0.75 0.75 0.75 1 @bdcolor 0.5 0.5 0.5 1 @crcolor 0.5
0.5 0.5 1;
#X obj 535 70 c.toggle @size 15 15 @fontname Helvetica @fontweight
normal @fontslant roman @fontsize 11 @receive (null) @send (null) @presetname
(null) @bgcolor 0.75 0.75 0.75 1 @bdcolor 0.5 0.5 0.5 1 @crcolor 0.5
0.5 0.5 1;
#X obj 565 70 c.toggle @size 15 15 @fontname Helvetica @fontweight
normal @fontslant roman @fontsize 11 @receive (null) @send (null) @presetname
(null) @bgcolor 0.75 0.75 0.75 1 @bdcolor 0.5 0.5 0.5 1 @crcolor 0.5
0.5 0.5 1;
#X obj 636 152 adc~ 1 2 3 4 5 6 7 8;
#X obj 647 188 *~;
#X obj 328 291 samplerate~;
#X obj 334 328 tgl 15 0 empty empty empty 17 7 0 10 -262144 -1 -1 0
44100;
#X obj 356 341 c.number~ @size 53 17 @fontname Helvetica @fontweight
normal @fontslant roman @fontsize 11 @receive (null) @send (null) @interval
50 @decimal 6 @bgcolor 0.75 0.75 0.75 1 @bdcolor 0.5 0.5 0.5 1 @textcolor
0 0 0 1;
#X obj 302 360 c.number @size 53 17 @fontname Helvetica @fontweight
normal @fontslant roman @fontsize 11 @receive (null) @send (null) @presetname
(null) @min (null) @max (null) @minmax (null) (null) @decimal 6 @bgcolor
0.75 0.75 0.75 1 @bdcolor 0.5 0.5 0.5 1 @textcolor 0 0 0 1;
#X obj 339 261 bng 15 250 50 0 empty empty empty 17 7 0 10 -262144
-1 -1;
#X obj 47 241 c.blackboard @size 168 120 @fontname Helvetica @fontweight
normal @fontslant roman @fontsize 11 @receive (null) @send (null) @chalkmode
0 @bgcolor 0.652134 0.652134 0.652134 1 @bdcolor 0.5 0.5 0.5 1;
#X obj 177 4 c.loadmess 440;
#X obj 52 267 c.tab @size 138 17 @fontname Helvetica @fontweight normal
@fontslant roman @fontsize 11 @receive (null) @send (null) @presetname
(null) @orientation 0 @toggle 1 @items sin tri rec noi @bgcolor 0.75
0.75 0.75 1 @bdcolor 0.5 0.5 0.5 1 @textcolor 0 0 0 1 @hocolor 0.5
0.5 0.5 1 @secolor 0.35 0.35 0.35 1;
#X obj 136 290 c.number @size 53 17 @fontname Helvetica @fontweight
normal @fontslant roman @fontsize 11 @receive (null) @send (null) @presetname
(null) @min (null) @max (null) @minmax (null) (null) @decimal 6 @bgcolor
0.75 0.75 0.75 1 @bdcolor 0.5 0.5 0.5 1 @textcolor 0 0 0 1;
#X obj 136 313 c.toggle @size 15 15 @fontname Helvetica @fontweight
normal @fontslant roman @fontsize 11 @receive (null) @send (null) @presetname
(null) @bgcolor 0.75 0.75 0.75 1 @bdcolor 0.5 0.5 0.5 1 @crcolor 0.5
0.5 0.5 1;
#X obj 136 334 c.number @size 53 17 @fontname Helvetica @fontweight
normal @fontslant roman @fontsize 11 @receive (null) @send (null) @presetname
(null) @min 25 @max (null) @minmax 25 (null) @decimal 6 @bgcolor 0.75
0.75 0.75 1 @bdcolor 0.5 0.5 0.5 1 @textcolor 0 0 0 1;
#X obj 206 96 c.loadmess 0;
#X obj 195 267 c.meter~ @size 16 89 @fontname Helvetica @fontweight
normal @fontslant roman @fontsize 11 @receive (null) @send (null) @interval
50 @bgcolor 0.75 0.75 0.75 1 @bdcolor 0.5 0.5 0.5 1 @coldcolor 0 0.6
0 0.8 @tepidcolor 0.6 0.73 0 0.8 @warmcolor 0.85 0.85 0 0.8 @hotcolor
1 0.6 0 0.8 @overcolor 1 0 0 0.8;
#X obj 84 125 c.loadmess 0;
#X obj 164 473 outlet~;
#X obj 52 245 c.menu @size 159 17 @fontname Helvetica @fontweight normal
@fontslant roman @fontsize 11 @receive (null) @send (null) @presetname
(null) @hover 0 @items oscillator soundfile microphone @states 0 0
0 @bgcolor 0.75 0.75 0.75 1 @bdcolor 0.5 0.5 0.5 1 @textcolor 0 0 0
1;
#X obj 235 374 == 0;
#X obj 219 137 c.loadmess 200;
#X msg 37 163 clear \, text 5 55 Frequency : \, text 5 77 Pulse : \,
text 5 99 Time :;
#N canvas 0 22 450 300 oscii 1;
#X obj 56 127 c.blackboard @size 146 99 @fontname Helvetica @fontweight
normal @fontslant roman @fontsize 11 @receive (null) @send (null) @chalkmode
0 @bgcolor 0.652134 0.652134 0.652134 1 @bdcolor 0.656086 0.656086
0.656086 1;
#X obj 61 132 c.tab @size 138 17 @fontname Helvetica @fontweight normal
@fontslant roman @fontsize 11 @receive (null) @send (null) @presetname
(null) @orientation 0 @toggle 1 @items sin tri rec noi @bgcolor 0.75
0.75 0.75 1 @bdcolor 0.5 0.5 0.5 1 @textcolor 0 0 0 1 @hocolor 0.5
0.5 0.5 1 @secolor 0.35 0.35 0.35 1;
#X obj 145 155 c.number @size 53 17 @fontname Helvetica @fontweight
normal @fontslant roman @fontsize 11 @receive (null) @send (null) @presetname
(null) @min (null) @max (null) @minmax (null) (null) @decimal 6 @bgcolor
0.75 0.75 0.75 1 @bdcolor 0.5 0.5 0.5 1 @textcolor 0 0 0 1;
#X obj 145 178 c.toggle @size 15 15 @fontname Helvetica @fontweight
normal @fontslant roman @fontsize 11 @receive (null) @send (null) @presetname
(null) @bgcolor 0.75 0.75 0.75 1 @bdcolor 0.5 0.5 0.5 1 @crcolor 0.5
0.5 0.5 1;
#X obj 145 199 c.number @size 53 17 @fontname Helvetica @fontweight
normal @fontslant roman @fontsize 11 @receive (null) @send (null) @presetname
(null) @min 25 @max (null) @minmax 25 (null) @decimal 6 @bgcolor 0.75
0.75 0.75 1 @bdcolor 0.5 0.5 0.5 1 @textcolor 0 0 0 1;
#X msg 56 88 clear \, text 5 35 Frequency : \, text 5 57 Pulse : \,
text 5 79 Time :;
#X connect 5 0 0 0;
#X restore 358 440 pd oscii;
#X connect 0 0 22 0;
#X connect 0 0 24 0;
#X connect 4 0 3 0;
#X connect 5 0 3 1;
#X connect 6 0 3 2;
#X connect 7 0 3 3;
#X connect 10 0 11 0;
#X connect 10 0 12 0;
#X connect 10 0 13 0;
#X connect 14 0 10 0;
#X connect 16 0 18 0;
#X connect 17 0 0 1;
#X connect 18 0 0 0;
#X connect 19 0 0 2;
#X connect 20 0 0 3;
#X connect 21 0 19 0;
#X connect 23 0 17 0;
#X connect 23 0 25 0;
#X connect 25 0 26 0;
#X connect 26 0 0 4;
#X connect 27 0 20 0;
#X connect 28 0 15 0;
#X coords 0 -1 1 1 105 101 2 0 0;
