#N canvas 738 256 572 324 10;
#X obj 163 195 outlet;
#X obj 163 10 loadbang;
#X obj 190 91 list split 1;
#X obj 190 69 c.canvasargs bang;
#X msg 163 163;
#X obj 224 117 list prepend set;
#X obj 224 139 list trim;
#X obj 163 41 t b b b;
#X obj 143 11 bng 15 250 50 0 empty empty empty 17 7 0 10 -262144 -1
-1;
#X connect 1 0 3 0;
#X connect 1 0 7 0;
#X connect 2 1 5 0;
#X connect 3 0 2 0;
#X connect 4 0 0 0;
#X connect 5 0 6 0;
#X connect 6 0 4 0;
#X connect 7 0 4 0;
#X connect 7 1 3 0;
#X connect 8 0 7 0;
