#N canvas 546 393 450 300 10;
#X obj 159 19 inlet;
#X obj 159 145 outlet;
#X obj 159 41 Cyclone/MouseState;
#X obj 185 125 outlet;
#X obj 211 105 outlet;
#X obj 237 85 outlet;
#X obj 264 65 outlet;
#X connect 0 0 2 0;
#X connect 2 0 1 0;
#X connect 2 1 3 0;
#X connect 2 2 4 0;
#X connect 2 3 5 0;
#X connect 2 4 6 0;
