#N canvas 540 57 738 451 10;
#X obj 45 1 cnv 15 354 40 empty \$0-c.header empty 3 12 0 18 -212212
-1 0;
#X obj 455 5 inlet;
#X obj 296 78 namecanvas \$0-r;
#X obj 490 386 s \$0-r;
#X msg 456 405 label \$1;
#X obj 422 308 list split 1;
#X obj 456 328 list split 1;
#X obj 3 3 c.blackboard @size 40 37 @fontname Helvetica @fontweight
normal @fontslant roman @fontsize 11 @receive (null) @send (null) @chalkmode
0 @bgcolor 0.802322 0.802322 0.802322 1 @bdcolor 0.802322 0.802322
0.802322 1;
#X obj 490 358 c.prepend text 46 23;
#X obj 502 118 textfile;
#X obj 470 88 until;
#X obj 485 251 f 1;
#X obj 518 250 f 0;
#X obj 422 273 spigot 0;
#X obj 485 197 sel sa;
#X msg 523 88 rewind;
#X obj 422 147 list;
#X obj 518 225 bang;
#X obj 422 171 t list symbol;
#X obj 455 35 t b b b b s;
#X msg 502 58 read c.parts.txt;
#X obj 456 435 s \$0-c.header;
#X msg 23 102 clear \, image 2 1 clogo.gif;
#X text 0 23 comment;
#X connect 1 0 19 0;
#X connect 4 0 21 0;
#X connect 5 1 6 0;
#X connect 5 1 4 0;
#X connect 6 1 8 0;
#X connect 8 0 3 0;
#X connect 9 0 16 0;
#X connect 9 1 10 1;
#X connect 10 0 9 0;
#X connect 11 0 13 1;
#X connect 12 0 13 1;
#X connect 13 0 5 0;
#X connect 14 0 11 0;
#X connect 14 1 17 0;
#X connect 15 0 9 0;
#X connect 16 0 18 0;
#X connect 17 0 12 0;
#X connect 18 0 13 0;
#X connect 18 1 14 0;
#X connect 19 0 22 0;
#X connect 19 1 10 0;
#X connect 19 2 15 0;
#X connect 19 3 20 0;
#X connect 19 4 14 1;
#X connect 20 0 9 0;
#X connect 22 0 7 0;
#X coords 0 -1 1 1 400 42 2 0 0;
